<svg data-v-0dd9719b="" version="1.0" xmlns="http://www.w3.org/2000/svg" xmlns:xlink="http://www.w3.org/1999/xlink" width="100%" height="100%" viewBox="0 0 340.000000 250.000000" preserveAspectRatio="xMidYMid meet" color-interpolation-filters="sRGB" style="margin: auto;"> <rect data-v-0dd9719b="" x="0" y="0" width="100%" height="100%" fill="#fff" fill-opacity="1" class="background"></rect> <rect data-v-0dd9719b="" x="0" y="0" width="100%" height="100%" fill="url(#watermark)" fill-opacity="1" class="watermarklayer"></rect> <g data-v-0dd9719b="" fill="#f8007a" class="icon-text-wrapper icon-svg-group iconsvg" transform="translate(47.650001525878906,92.13481521606445)"><g class="iconsvg-imagesvg" transform="translate(0,0)"><g><rect fill="#f8007a" fill-opacity="0" stroke-width="2" x="0" y="0" width="60" height="65.7303740058281" class="image-rect"></rect> <svg x="0" y="0" width="60" height="65.7303740058281" filtersec="colorsb2107500331" class="image-svg-svg primary" style="overflow: visible;"><svg xmlns="http://www.w3.org/2000/svg" viewBox="-9.379161943628977e-14 -0.0000010169276265514782 69.21002960205078 75.82000732421875"><defs><linearGradient id="ad9f4ff8e-9e0b-44ab-b6a9-3655a105e18f" x1=".24" y1="3.54" x2="47.65" y2="50.96" gradientUnits="userSpaceOnUse"><stop offset="0" stop-color="#fc7300"></stop><stop offset="1" stop-color="#f8007a"></stop></linearGradient><linearGradient id="b04ff69f3-5e33-471d-9210-3645a506d2e7" x1="15.44" y1="18.75" x2="67.13" y2="70.44" gradientUnits="userSpaceOnUse"><stop offset="0" stop-color="#233b55"></stop><stop offset="1" stop-color="#131d32"></stop></linearGradient></defs><g style="isolation:isolate"><g><path d="M69.21 13.2h-56v62.59a13.18 13.18 0 0 1-11.6-6.9A13.07 13.07 0 0 1 0 62.61v-4.9V13.2A13.2 13.2 0 0 1 13.2 0H56a13.2 13.2 0 0 1 13.2 12.83 2.55 2.55 0 0 1 0 .28.08.08 0 0 1 0 .07l.01.02z" fill="url(#ad9f4ff8e-9e0b-44ab-b6a9-3655a105e18f)"></path><path d="M30.93 30.93v31.66h38.28A13.2 13.2 0 0 1 56 75.82H17.71V17.7h51.5v13.23z" fill="url(#b04ff69f3-5e33-471d-9210-3645a506d2e7)"></path><path d="M69.2 12.83a2.52 2.52 0 0 1 0 .28c0-.18-.08-.64-.15-1.34a13.72 13.72 0 0 0-1.23-3.84 13.19 13.19 0 0 0-3.92-4.69A12.71 12.71 0 0 0 56.57.75c-1.43 0-3.06.06-4.67.09l-5 .09L36 1.1c-3.77 0-7.68.1-11.63.1H12.43a12.05 12.05 0 0 0-9.16 5.2 12.51 12.51 0 0 0-1.95 4.91 6.12 6.12 0 0 0-.1.64V16.9C1 24.54.87 31.58.72 37.62.44 49 .06 56.82 0 57.66V13.2A13.2 13.2 0 0 1 13.2 0H56a13.21 13.21 0 0 1 13.2 12.83z" fill="#fff" opacity=".5" style="mix-blend-mode:screen"></path><path d="M55.58 13.23H13.23v62.59a13.18 13.18 0 0 1-11.6-6.9 12.6 12.6 0 0 0 1 1.4 13.27 13.27 0 0 0 1.19 1.29 16.15 16.15 0 0 0 1.35 1.13 15.86 15.86 0 0 0 1.47.93 13 13 0 0 0 3.22 1.22 13.72 13.72 0 0 0 1.68.29H12.65q-.24-7.53-.37-15.07c-.15-5.11-.16-10.37-.28-15.59V28.87c0-5.21 0-10.42.09-15.64v-1.16h1.12l10.59.14c3.53.07 7.05.11 10.59.22 7.07.2 14.13.44 21.19.8z" opacity=".3" style="mix-blend-mode:multiply" fill="#333333"></path><path d="M69.21 30.93c-.27-4.2-.42-8.39-.59-12.59l-5.85.17-6.44.16c-4.3.11-8.58.13-12.88.2l-12.87.07-11.71-.05-.12 8.89-.22 10.08c-.11 3.36-.2 6.72-.34 10.08s-.29 6.69-.48 10V17.7h51.5z" fill="#fff" opacity=".5" style="mix-blend-mode:screen"></path><path d="M69.21 62.59A13.2 13.2 0 0 1 56 75.82H17.71c4.91-.25 9.84-.41 14.76-.57l7.38-.19 7.39-.16 7.37-.13h2.66l.83-.14a11.43 11.43 0 0 0 3.19-1.07 11.77 11.77 0 0 0 1.45-.86 13.38 13.38 0 0 0 1.31-1 12 12 0 0 0 2.13-2.7 11.47 11.47 0 0 0 1.35-3.06l.2-.81.13-.78a3.43 3.43 0 0 0 .06-.5H50.06l-9.57-.09q-4.77 0-9.56-.14h-1v-.94l.15-7.91.21-7.92c.15-5.28.32-10.55.59-15.83v31.57z" opacity=".3" style="mix-blend-mode:multiply" fill="#333333"></path></g></g></svg></svg> <!----></g></g> <g transform="translate(67,8.548934936523438)"><g data-gra="path-name" fill-rule="" class="tp-name iconsvg-namesvg" transform="translate(0,0)"><g transform="scale(1)"><g><path d="M4.52 3.71L4.52 3.71Q2.51 1.31 1.31 0.71L1.31 0.71Q4.09-3.71 4.09-13.98L4.09-13.98 4.09-23.76 18.6-23.76Q18.43-26.83 18.43-29.37L18.43-29.37 23.16-29.37 23.16-28.28Q23.16-26.09 23.26-23.76L23.26-23.76 29.44-23.76Q26.55-26.3 23.72-27.82L23.72-27.82 25.66-29.76Q29.97-27.53 32.27-25.73L32.27-25.73 30.43-23.76 34.52-23.76 34.52-20.97 23.4-20.97Q23.97-14.23 24.85-10.8L24.85-10.8Q26.33-13.13 27.96-18.36L27.96-18.36 32.37-17.3Q30.32-11.12 26.23-5.79L26.23-5.79Q27.39-2.97 28.33-1.78 29.26-0.6 29.79-0.6L29.79-0.6Q30.54-0.6 30.75-8.08L30.75-8.08Q32.65-6.14 33.38-5.7 34.1-5.26 34.77-4.98L34.77-4.98Q34.49-1.06 33.41 0.64 32.34 2.33 29.55 2.33L29.55 2.33Q27.11 2.33 25.45 0.81 23.79-0.71 23.09-2.15L23.09-2.15Q21.04 0 16.34 2.86L16.34 2.86Q15.53 1.62 14.16 0.04L14.16 0.04Q18-2.05 21.43-6L21.43-6Q19.45-12.53 18.82-20.97L18.82-20.97 8.79-20.97 8.79-16.27 17.65-16.27Q17.65-5.19 16.63-3.97 15.6-2.75 13.8-2.61L13.8-2.61Q12.96-2.51 11.51-2.51L11.51-2.51Q10.34-2.51 8.83-2.58L8.83-2.58Q8.79-3.25 8.54-4.17 8.3-5.08 8.23-5.22L8.23-5.22Q10.63-5.01 12-5.01L12-5.01Q12.18-5.01 12.36-5.19L12.36-5.19Q13.03-6 13.17-13.7L13.17-13.7 8.79-13.7 8.79-13.34Q8.79-9.43 8.07-5.08 7.34-0.74 4.52 3.71ZM48.47-23.09L48.47-18.96 48.15-18.96Q49.39-20.47 50.94-23.09L50.94-23.09 48.47-23.09ZM45.26-7.52L50.97-7.52 50.97-10.84 45.26-10.84 45.26-7.52ZM45.26-1.77L50.97-1.77 50.97-5.37 45.26-5.37 45.26-1.77ZM45.26 0.49L45.26 2.44 41.02 2.44 41.02-8.44 38.83-7.2Q38.23-8.4 37.14-9.92L37.14-9.92Q41.58-12.14 46.07-16.52L46.07-16.52 37.56-16.52 37.56-18.96 44.16-18.96 44.16-23.09 39.11-23.09 39.11-25.49 44.16-25.49 44.16-29.12 48.47-29.12 48.47-25.49 52.53-25.49 52.53-25.88 52.49-25.84Q52.49-25.95 53.41-28.28L53.41-28.28 57.36-27.11Q55.85-23.37 52.74-18.96L52.74-18.96 56.76-18.96 56.76-16.52 50.76-16.52Q49.6-15.18 47.41-13.06L47.41-13.06 55.35-13.06 55.35 1.94 50.97 1.94 50.97 0.49 45.26 0.49ZM61.32-24.78L61.32 2.58 56.83 2.58 56.83-27.43 67.46-27.43 68.38-27.68 71.03-26.02Q69.08-21.29 66.3-15.6L66.3-15.6Q69.05-12.96 69.84-11 70.64-9.04 70.64-7.13L70.64-7.13Q70.64-4.17 68.84-2.89L68.84-2.89Q67.04-1.84 64.14-1.84L64.14-1.84Q63.15-1.84 61.92-1.91L61.92-1.91Q61.88-2.51 61.62-3.51 61.35-4.52 61.28-4.66L61.28-4.66Q62.69-4.52 63.61-4.52L63.61-4.52Q64.78-4.52 65.24-4.8L65.24-4.8Q66.22-5.3 66.22-7.77L66.22-7.77Q66.22-9.53 65.24-11.58 64.25-13.63 62.09-15.53L62.09-15.53Q63.97-19.59 65.8-24.78L65.8-24.78 61.32-24.78ZM82.43-21.25L89.03-21.25 89.03-23.65 82.43-23.65 82.43-21.25ZM82.43-17.12L89.03-17.12 89.03-19.45 82.43-19.45 82.43-17.12ZM82.43-12.85L89.03-12.85 89.03-15.29 82.43-15.29 82.43-12.85ZM82.43-10.7L82.43-9.67 77.91-9.67 77.91-19.2 75.79-17.54Q74.8-18.85 74.17-19.45 73.53-20.05 73.53-20.02L73.53-20.02Q75.83-21.75 77.89-24.32 79.96-26.9 81.3-29.58L81.3-29.58 85.61-28.77Q85.18-27.96 83.66-25.81L83.66-25.81 89.81-25.81Q89.03-27.89 88.61-28.63L88.61-28.63 92.42-29.72Q93.76-27.5 94.36-25.81L94.36-25.81 104.53-25.81 104.53-23.65 93.44-23.65 93.44-21.25 103.01-21.25 103.01-19.45 93.44-19.45 93.44-17.12 103.08-17.12 103.08-15.29 93.44-15.29 93.44-12.85 105.51-12.85 105.51-10.7 82.43-10.7ZM92.35-3.6L92.35 2.51 87.83 2.51 87.83-3.53Q83.2 0.04 75.23 2.44L75.23 2.44Q74.8 1.8 73.43-0.04L73.43-0.04Q79.67-1.59 85.96-5.58L85.96-5.58 73.85-5.58 73.85-7.8 87.83-7.8 87.83-9.95 92.35-9.95 92.35-7.8 106.43-7.8 106.43-5.58 94.32-5.58Q100.54-1.73 106.68-0.21L106.68-0.21Q106.79-0.35 106.22 0.42 105.66 1.2 105.06 2.26L105.06 2.26Q96.9-0.18 92.35-3.6L92.35-3.6ZM119.04-8.9L119.04-8.9Q120.87-12.6 121.65-19.73L121.65-19.73 117.94-19.73Q116.99-15.5 115.86-11.37L115.86-11.37Q117.76-9.95 119.04-8.9ZM130.97-3.64L137.25-3.64 137.25-23.02 130.97-23.02 130.97-3.64ZM111.59 3L111.59 3Q111.02 1.77 110 0.32L110 0.32Q114.06-1.16 117.38-5.72L117.38-5.72Q113.99-8.65 111.23-10.8L111.23-10.8Q112.29-14.05 113.56-19.73L113.56-19.73 109.61-19.73 109.61-22.35 114.09-22.35Q114.83-26.09 115.19-29.34L115.19-29.34 119.64-29.09Q119.25-26.26 118.47-22.35L118.47-22.35Q122.99-22.35 123.69-22.42L123.69-22.42 126.31-22.03Q125.64-12.46 122.39-6.14L122.39-6.14Q124.97-3.88 125.99-2.75L125.99-2.75 123.45 0.46Q121.47-2.05 120.31-3.07L120.31-3.07Q117.73 0.39 111.59 3ZM130.97-0.95L130.97 1.66 126.59 1.66 126.59-25.7 141.77-25.7 141.77 1.16 137.25 1.16 137.25-0.95 130.97-0.95ZM169.59 0.25L166.9 3.25Q162.21-0.81 154.94-5.19L154.94-5.19 157.23-7.59Q160.3-5.93 162.56-4.48L162.56-4.48Q165.24-7.02 168.7-10.63L168.7-10.63 149.85-10.63 149.85-13.34 171.81-13.34 172.76-13.7 175.3-12.18Q171.6-8.26 165.74-2.51L165.74-2.51Q168.49-0.64 169.59 0.25L169.59 0.25ZM166.55-16.2L163.55-13.59Q161.33-16.77 158.4-19.24L158.4-19.24 160.94-21.29Q165.07-18 166.55-16.2L166.55-16.2ZM147.84-14.9L147.84-14.9Q146.64-16.8 145.72-17.72L145.72-17.72Q150.06-19.49 154.48-22.58 158.89-25.66 162.17-29.97L162.17-29.97 165.81-28.06Q165.77-28.06 164.82-26.97L164.82-26.97Q168.03-23.9 171.9-21.55 175.76-19.2 179.01-17.93L179.01-17.93Q177.67-16.31 176.86-15.04L176.86-15.04Q168.28-19.03 162.46-24.53L162.46-24.53Q156.77-19.06 147.84-14.9Z" transform="translate(-1.309999942779541, 29.969999313354492)"></path></g> <!----> <!----> <!----> <!----> <!----> <!----> <!----></g></g> <g data-gra="path-slogan" fill-rule="" class="tp-slogan iconsvg-slogansvg" fill="#f8007a" transform="translate(5,39.68000030517578)"><rect x="0" height="1" y="3.9750003814697266" width="20.759998321533203"></rect> <rect height="1" y="3.9750003814697266" width="20.759998321533203" x="146.93999862670898"></rect> <g transform="translate(23.759998321533203,0)"><g transform="scale(1)"><path d="M8.06-6.05L8.06-6.05L6.94-6.05Q6.52-7.78 4.55-7.83L4.55-7.83Q1.83-7.69 1.73-4.36L1.73-4.36Q1.73-0.80 4.59-0.80L4.59-0.80Q6.56-0.84 7.03-3.19L7.03-3.19L8.16-3.19Q7.64 0.05 4.36 0.14L4.36 0.14Q0.61 0 0.52-4.31L0.52-4.31Q0.70-8.63 4.55-8.81L4.55-8.81Q7.59-8.72 8.06-6.05ZM10.69-5.06L15.19-5.06L15.19-8.58L16.36-8.58L16.36 0L15.19 0L15.19-3.98L10.69-3.98L10.69 0L9.52 0L9.52-8.58L10.69-8.58L10.69-5.06ZM19.45-1.03L24.61-1.03L24.61 0L18.28 0L18.28-8.58L24.52-8.58L24.52-7.59L19.45-7.59L19.45-4.92L24.14-4.92L24.14-3.89L19.45-3.89L19.45-1.03ZM27.52-8.58L31.83-1.64L31.83-8.58L32.95-8.58L32.95 0L31.64 0L27.28-6.94L27.23-6.94L27.23 0L26.11 0L26.11-8.58L27.52-8.58ZM41.16-3.61L38.53-3.61L38.53-4.59L42.28-4.59L42.28 0L41.53 0L41.25-1.08Q40.27 0.09 38.44 0.14L38.44 0.14Q36.70 0.14 35.77-0.75L35.77-0.75Q34.36-2.06 34.41-4.36L34.41-4.36Q34.73-8.63 38.48-8.81L38.48-8.81Q41.67-8.63 42.14-6L42.14-6L41.02-6Q40.55-7.78 38.44-7.83L38.44-7.83Q35.77-7.64 35.63-4.31L35.63-4.31Q35.63-0.75 38.48-0.75L38.48-0.75Q39.52-0.75 40.27-1.31L40.27-1.31Q41.20-2.06 41.16-3.61L41.16-3.61ZM47.58 0L44.11 0L44.11-8.58L47.63-8.58Q51.09-8.39 51.23-4.41L51.23-4.41Q51.05-0.09 47.58 0L47.58 0ZM47.44-7.64L45.28-7.64L45.28-0.98L47.53-0.98Q49.97-1.13 50.06-4.31L50.06-4.31Q50.02-7.55 47.44-7.64L47.44-7.64ZM58.36-3.19L58.36-8.58L59.53-8.58L59.53-3.05Q59.39 0.05 56.02 0.14L56.02 0.14Q52.88 0.05 52.73-2.86L52.73-2.86L52.73-8.58L53.91-8.58L53.91-3.19Q53.95-0.84 56.06-0.80L56.06-0.80Q58.36-0.84 58.36-3.19L58.36-3.19ZM63.94-1.92L63.94-2.77L65.02-2.77L65.02-2.16Q65.02-0.75 66.33-0.75L66.33-0.75Q67.69-0.75 67.69-2.25L67.69-2.25L67.69-8.58L68.86-8.58L68.86-2.30Q68.81 0.09 66.38 0.14L66.38 0.14Q64.08 0.09 63.94-1.92L63.94-1.92ZM70.83-8.58L72-8.58L72 0L70.83 0L70.83-8.58ZM78.09-3.70L75.28-3.70L75.28 0L74.11 0L74.11-8.58L78.09-8.58Q80.95-8.58 80.95-6.28L80.95-6.28Q80.95-4.88 79.73-4.22L79.73-4.22Q80.77-3.94 80.77-2.58L80.77-2.58L80.86-1.03Q80.81-0.38 81.28-0.19L81.28-0.19L81.28 0L79.83 0Q79.69-0.61 79.64-2.16L79.64-2.16Q79.69-3.70 78.09-3.70L78.09-3.70ZM78.19-7.64L75.28-7.64L75.28-4.69L78-4.69Q79.73-4.69 79.73-6.19L79.73-6.19Q79.73-7.64 78.19-7.64L78.19-7.64ZM88.27-3.19L88.27-8.58L89.44-8.58L89.44-3.05Q89.30 0.05 85.92 0.14L85.92 0.14Q82.78 0.05 82.64-2.86L82.64-2.86L82.64-8.58L83.81-8.58L83.81-3.19Q83.86-0.84 85.97-0.80L85.97-0.80Q88.27-0.84 88.27-3.19L88.27-3.19ZM94.55-8.58L95.72-8.58L95.72-1.03L100.08-1.03L100.08 0L94.55 0L94.55-8.58ZM101.39-8.58L102.56-8.58L102.56 0L101.39 0L101.39-8.58ZM105.94-8.58L110.25-1.64L110.25-8.58L111.38-8.58L111.38 0L110.06 0L105.70-6.94L105.66-6.94L105.66 0L104.53 0L104.53-8.58L105.94-8.58ZM119.58-3.61L116.95-3.61L116.95-4.59L120.70-4.59L120.70 0L119.95 0L119.67-1.08Q118.69 0.09 116.86 0.14L116.86 0.14Q115.13 0.14 114.19-0.75L114.19-0.75Q112.78-2.06 112.83-4.36L112.83-4.36Q113.16-8.63 116.91-8.81L116.91-8.81Q120.09-8.63 120.56-6L120.56-6L119.44-6Q118.97-7.78 116.86-7.83L116.86-7.83Q114.19-7.64 114.05-4.31L114.05-4.31Q114.05-0.75 116.91-0.75L116.91-0.75Q117.94-0.75 118.69-1.31L118.69-1.31Q119.63-2.06 119.58-3.61L119.58-3.61Z" transform="translate(-0.515625, 8.8125)"></path></g></g></g></g></g><defs v-gra="od"></defs></svg>